<svg xmlns="http://www.w3.org/2000/svg" width="50" height="50" fill="none"><g clip-path="url(#a)"><path fill="#000" d="M23.2 34.2v.4c0 2.8-1.2 5.3-3 7a11 11 0 0 1-7.7 2.8h-.6c-3.4 0-6.4-1.5-8.6-3.8A14.2 14.2 0 0 1 0 30.7a25.4 25.4 0 0 1 2-10.9v.2A24 24 0 0 1 12.4 8.1c1.5-.9 3.3-1.7 5-2.4h.3l5 8.5a13 13 0 0 0-5.3 4 11 11 0 0 0-2.5 5.9c2.3 0 4.3 1.1 5.7 2.8a10.2 10.2 0 0 1 2.6 7.4Zm27.4 0v.4c0 2.8-1.2 5.3-3.1 7a11 11 0 0 1-7.7 2.8h-.6c-3.4 0-6.4-1.5-8.5-3.8a14.2 14.2 0 0 1-3.4-9.9 25.2 25.2 0 0 1 2-10.9v.2c1.2-2.8 2.8-5.2 4.8-7.3a24 24 0 0 1 5.6-4.5l.1-.1a35 35 0 0 1 5-2.4h.2l5 8.5a13 13 0 0 0-5.3 4 11 11 0 0 0-2.5 5.9c2.3 0 4.4 1.1 5.7 2.8a10.2 10.2 0 0 1 2.7 7.4Z"/></g><defs><clipPath id="a"><path fill="#fff" d="M0 0h50v50H0z"/></clipPath></defs></svg>